# xmcd CD database file
#
# Track frame offsets:
#	150
#	15776
#	29651
#	49347
#	64842
#	84044
#	103922
#	117825
#	132510
#	153493
#	174275
#	192760
#	214284
#	234858
#	248968
#	262192
#	275974
#
# Disc length: 3861 seconds
#
# Revision: 0
# Processed by: cddbd v1.5.2PL0 Copyright (c) Steve Scherf et al.
# Submitted via: CDex 1.51
#
DISCID=f10f1311
DTITLE=Muggsy Spanier - Sentimental Journey [CD2)
DYEAR=2005
DGENRE=Jazz
TTITLE0=Oh! Lady Be Good
TTITLE1=Suger
TTITLE2=September In The Rain
TTITLE3=Oh! Lady Be Good
TTITLE4=Memphis Blues
TTITLE5=Sweet Sue, Just You
TTITLE6=Riverside Blues
TTITLE7=Rosetta
TTITLE8=That's A Plenty
TTITLE9=Squeeze Me
TTITLE10=Jazz Me Blues
TTITLE11=Pee Wee Speaks
TTITLE12=Pat's Blues
TTITLE13=Whistlin' The Blues
TTITLE14=Sobbin' Blues
TTITLE15=Darktown Strutter's Ball
TTITLE16=The Lady's In Love With You
EXTD=YEAR: 2005
EXTT0=
EXTT1=
EXTT2=
EXTT3=
EXTT4=
EXTT5=
EXTT6=
EXTT7=
EXTT8=
EXTT9=
EXTT10=
EXTT11=
EXTT12=
EXTT13=
EXTT14=
EXTT15=
EXTT16=
PLAYORDER=
